<svg xmlns="http://www.w3.org/2000/svg" xmlns:xlink="http://www.w3.org/1999/xlink" width="500" zoomAndPan="magnify" viewBox="0 0 375 374.999991" height="500" preserveAspectRatio="xMidYMid meet" version="1.0"><defs><clipPath id="57b0b7d3c5"><path d="M 16.597656 141.011719 L 114.847656 141.011719 L 114.847656 234 L 16.597656 234 Z M 16.597656 141.011719 " clip-rule="nonzero"/></clipPath><clipPath id="bf9e5f0f35"><path d="M 117.15625 144.59375 L 198.90625 144.59375 L 198.90625 230.09375 L 117.15625 230.09375 Z M 117.15625 144.59375 " clip-rule="nonzero"/></clipPath><clipPath id="b28f1c5003"><path d="M 117.15625 144.59375 L 192 144.59375 L 192 223 L 117.15625 223 Z M 117.15625 144.59375 " clip-rule="nonzero"/></clipPath><clipPath id="7d45cdd26f"><path d="M 188 134 L 255.769531 134 L 255.769531 241 L 188 241 Z M 188 134 " clip-rule="nonzero"/></clipPath><clipPath id="31273648d7"><path d="M 257.84375 136.519531 L 358.34375 136.519531 L 358.34375 238.519531 L 257.84375 238.519531 Z M 257.84375 136.519531 " clip-rule="nonzero"/></clipPath><clipPath id="711e4fac5c"><path d="M 257.84375 136.519531 L 348 136.519531 L 348 228 L 257.84375 228 Z M 257.84375 136.519531 " clip-rule="nonzero"/></clipPath></defs><g clip-path="url(#57b0b7d3c5)"><path fill="#000000" d="M 100.234375 233.960938 C 98.542969 233.960938 96.914062 233.613281 95.378906 232.929688 L 37.628906 208.226562 C 36.054688 207.648438 33.574219 205.597656 31.585938 203.945312 C 30.902344 203.378906 30.308594 202.886719 29.871094 202.550781 C 29.804688 202.5 21.398438 195.703125 21.398438 195.703125 C 18.417969 193.265625 16.699219 189.511719 16.792969 185.640625 L 16.972656 178.46875 C 17.101562 173.335938 20.25 168.71875 25.015625 166.71875 L 84.003906 142.003906 C 85.578125 141.347656 87.246094 141.011719 88.960938 141.011719 C 91.816406 141.011719 94.605469 141.992188 96.8125 143.773438 L 105.722656 150.96875 C 106.484375 151.628906 107.21875 152.195312 107.929688 152.75 C 109.851562 154.246094 111.851562 155.78125 113.183594 158.195312 C 114.253906 160.117188 114.796875 162.320312 114.746094 164.589844 L 114.566406 171.96875 C 114.4375 177.078125 111.296875 181.683594 106.574219 183.695312 L 90.886719 190.375 C 92.449219 191.019531 94.011719 191.703125 94.835938 192.363281 C 97.121094 194.078125 99.460938 195.988281 101.71875 197.832031 C 103.164062 199.019531 104.609375 200.203125 106.042969 201.328125 C 106.328125 201.570312 106.703125 201.867188 107.128906 202.203125 C 108.601562 203.378906 109.773438 204.320312 110.328125 205.003906 C 112.410156 207.246094 113.609375 210.433594 113.542969 213.710938 L 113.363281 221.179688 C 113.363281 227.976562 107.230469 233.960938 100.246094 233.960938 Z M 100.234375 233.960938 " fill-opacity="1" fill-rule="nonzero"/></g><path fill="#ffffff" d="M 88.832031 147.421875 C 92.242188 147.34375 95.1875 150.375 95.03125 153.808594 C 95.03125 153.808594 94.851562 161.171875 94.851562 161.171875 C 94.785156 163.726562 93.222656 166.035156 90.847656 167.042969 L 55.046875 182.273438 L 90.058594 197.019531 C 92.410156 198.011719 93.894531 200.347656 93.828125 202.914062 L 93.648438 210.367188 C 93.648438 213.785156 90.550781 216.816406 87.140625 216.765625 C 86.304688 216.765625 85.464844 216.597656 84.6875 216.261719 L 26.914062 191.5625 C 24.578125 190.570312 23.105469 188.246094 23.167969 185.679688 L 23.351562 178.507812 C 23.414062 175.929688 25.003906 173.621094 27.378906 172.628906 L 86.355469 147.914062 C 87.15625 147.578125 88.007812 147.421875 88.832031 147.421875 Z M 88.832031 147.421875 " fill-opacity="1" fill-rule="nonzero"/><g clip-path="url(#bf9e5f0f35)"><path fill="#000000" d="M 198.753906 160.90625 L 198.753906 169.714844 C 198.753906 174.476562 194.871094 178.351562 190.109375 178.351562 L 177.082031 178.351562 L 177.082031 221.4375 C 177.082031 226.207031 173.199219 230.074219 168.433594 230.074219 L 155.351562 230.074219 C 153.09375 230.074219 151.019531 229.203125 149.480469 227.773438 L 149.144531 227.4375 L 141.804688 220.105469 L 141.296875 219.605469 C 139.882812 218.0625 139.019531 216.015625 139.019531 213.761719 L 139.019531 178.351562 L 133.679688 178.351562 C 131.390625 178.351562 129.296875 177.460938 127.75 176 L 127.566406 175.820312 L 119.921875 168.179688 C 118.335938 166.617188 117.347656 164.4375 117.347656 162.039062 L 117.347656 153.230469 C 117.347656 148.472656 121.226562 144.59375 125.992188 144.59375 L 182.421875 144.59375 C 184.871094 144.59375 187.082031 145.609375 188.65625 147.253906 L 188.820312 147.425781 L 195.921875 154.515625 L 196.476562 155.074219 C 197.890625 156.609375 198.753906 158.660156 198.753906 160.90625 Z M 198.753906 160.90625 " fill-opacity="1" fill-rule="nonzero"/></g><g clip-path="url(#b28f1c5003)"><path fill="#000000" d="M 147.664062 222.398438 C 142.902344 222.398438 139.019531 218.519531 139.019531 213.761719 L 139.019531 170.675781 L 125.992188 170.675781 C 121.226562 170.675781 117.347656 166.800781 117.347656 162.039062 L 117.347656 153.230469 C 117.347656 148.472656 121.226562 144.59375 125.992188 144.59375 L 182.421875 144.59375 C 187.1875 144.59375 191.070312 148.472656 191.070312 153.230469 L 191.070312 162.039062 C 191.070312 166.800781 187.1875 170.675781 182.421875 170.675781 L 169.394531 170.675781 L 169.394531 213.769531 C 169.394531 218.53125 165.515625 222.40625 160.75 222.40625 L 147.664062 222.40625 Z M 147.664062 222.398438 " fill-opacity="1" fill-rule="nonzero"/></g><path fill="#ffffff" d="M 125.992188 166.835938 L 140.941406 166.835938 C 141.996094 166.835938 142.863281 167.699219 142.863281 168.757812 L 142.863281 213.769531 C 142.863281 216.417969 145.015625 218.570312 147.664062 218.570312 L 160.75 218.570312 C 163.402344 218.570312 165.554688 216.417969 165.554688 213.769531 L 165.554688 168.757812 C 165.554688 167.699219 166.417969 166.835938 167.472656 166.835938 L 182.421875 166.835938 C 185.074219 166.835938 187.226562 164.6875 187.226562 162.039062 L 187.226562 153.230469 C 187.226562 150.582031 185.074219 148.433594 182.421875 148.433594 L 125.992188 148.433594 C 123.339844 148.433594 121.1875 150.582031 121.1875 153.230469 L 121.1875 162.039062 C 121.1875 164.6875 123.339844 166.835938 125.992188 166.835938 Z M 125.992188 166.835938 " fill-opacity="1" fill-rule="nonzero"/><g clip-path="url(#7d45cdd26f)"><path fill="#000000" d="M 213.03125 240.785156 C 211.949219 240.785156 210.902344 240.609375 209.894531 240.273438 L 205.507812 238.824219 C 204.457031 238.476562 203.417969 237.921875 202.441406 237.152344 C 201.765625 236.570312 200.941406 235.921875 200.140625 235.296875 C 199.207031 234.570312 198.25 233.832031 197.5 233.152344 C 196.675781 232.4375 195.761719 231.726562 194.867188 231.042969 C 193.316406 229.839844 191.710938 228.601562 190.417969 227.164062 C 188.042969 224.332031 187.476562 220.28125 188.9375 216.816406 L 220.976562 140.691406 C 222.621094 136.804688 226.363281 134.289062 230.523438 134.289062 C 230.554688 134.289062 230.648438 134.289062 230.75 134.289062 C 232.425781 134.289062 234.59375 135.089844 236.507812 135.789062 C 237.152344 136.023438 237.75 136.25 238.234375 136.394531 C 240.15625 137.070312 241.644531 138.34375 243.09375 139.5625 C 243.722656 140.097656 244.316406 140.597656 244.933594 141.050781 L 249.5 144.730469 L 250.175781 145.273438 C 251.914062 146.648438 253.878906 148.207031 254.679688 150.402344 C 255.746094 152.867188 255.746094 155.789062 254.667969 158.351562 L 222.597656 234.386719 C 221.039062 238.199219 217.191406 240.773438 213.03125 240.773438 Z M 213.03125 240.785156 " fill-opacity="1" fill-rule="nonzero"/></g><path fill="#ffffff" d="M 230.421875 139.386719 C 231.65625 139.265625 235.3125 140.886719 236.507812 141.214844 C 237.800781 141.664062 238.839844 142.640625 239.382812 143.902344 C 239.941406 145.164062 239.941406 146.609375 239.382812 147.890625 L 207.316406 223.921875 C 206.265625 226.414062 203.460938 227.707031 200.964844 226.867188 C 200.964844 226.867188 196.574219 225.410156 196.574219 225.410156 C 193.839844 224.558594 192.453125 221.308594 193.605469 218.703125 C 193.605469 218.703125 225.640625 142.578125 225.640625 142.578125 C 226.484375 140.597656 228.40625 139.378906 230.421875 139.378906 Z M 230.421875 139.386719 " fill-opacity="1" fill-rule="nonzero"/><g clip-path="url(#31273648d7)"><path fill="#000000" d="M 358.371094 186.953125 L 358.371094 199.109375 C 358.371094 204.136719 355.371094 208.644531 350.730469 210.558594 L 285.996094 237.445312 C 284.484375 238.078125 282.886719 238.394531 281.246094 238.394531 C 278.441406 238.394531 275.742188 237.429688 273.566406 235.722656 C 272.808594 235.128906 272.121094 234.441406 271.5 233.667969 L 271.460938 233.613281 L 262.550781 224.699219 L 262.511719 224.65625 C 261.574219 223.925781 260.734375 223.03125 260.03125 222.023438 C 258.601562 219.972656 257.84375 217.476562 257.84375 214.816406 L 257.84375 204 C 257.84375 198.914062 261.039062 194.257812 265.773438 192.425781 L 283.878906 185.4375 L 276.789062 182.710938 C 275.230469 182.117188 273.828125 181.195312 272.65625 180.050781 L 261.382812 168.765625 C 259.164062 166.492188 257.84375 163.390625 257.84375 160.113281 L 257.84375 149.253906 C 257.84375 146.097656 258.917969 143.136719 260.871094 140.890625 C 263.242188 138.160156 266.65625 136.601562 270.234375 136.601562 C 271.871094 136.601562 273.484375 136.933594 274.996094 137.554688 L 339.71875 164.480469 C 341.644531 165.28125 343.28125 166.535156 344.550781 168.0625 L 353.828125 177.363281 L 353.882812 177.40625 C 356.679688 179.707031 358.371094 183.179688 358.371094 186.953125 Z M 358.371094 186.953125 " fill-opacity="1" fill-rule="nonzero"/></g><g clip-path="url(#711e4fac5c)"><path fill="#000000" d="M 270.234375 227.371094 C 266.1875 227.371094 262.375 225.375 260.03125 222.023438 C 258.601562 219.972656 257.84375 217.476562 257.84375 214.816406 L 257.84375 204 C 257.84375 198.914062 261.039062 194.257812 265.773438 192.425781 L 292.648438 182.050781 L 265.773438 171.6875 C 261.039062 169.855469 257.84375 165.210938 257.84375 160.113281 L 257.84375 149.253906 C 257.84375 146.097656 258.917969 143.136719 260.871094 140.890625 C 263.242188 138.160156 266.65625 136.601562 270.234375 136.601562 C 271.871094 136.601562 273.484375 136.933594 274.996094 137.554688 L 339.730469 164.480469 C 344.371094 166.410156 347.371094 170.902344 347.371094 175.929688 L 347.371094 188.085938 C 347.371094 193.113281 344.371094 197.605469 339.730469 199.535156 L 274.996094 226.40625 C 273.484375 227.039062 271.886719 227.359375 270.246094 227.359375 Z M 270.234375 227.371094 " fill-opacity="1" fill-rule="nonzero"/></g><path fill="#ffffff" d="M 263.351562 204 L 263.351562 214.816406 C 263.351562 216.25 263.722656 217.683594 264.546875 218.871094 C 265.925781 220.839844 268.074219 221.859375 270.234375 221.859375 C 271.128906 221.859375 272.023438 221.679688 272.878906 221.335938 L 337.609375 194.464844 C 340.183594 193.402344 341.851562 190.882812 341.851562 188.097656 L 341.851562 175.945312 C 341.851562 173.160156 340.171875 170.652344 337.609375 169.578125 L 272.878906 142.652344 C 272.023438 142.292969 271.128906 142.128906 270.234375 142.128906 C 268.308594 142.128906 266.394531 142.941406 265.015625 144.511719 C 263.886719 145.808594 263.351562 147.53125 263.351562 149.265625 L 263.351562 160.125 C 263.351562 162.976562 265.097656 165.527344 267.757812 166.5625 L 304.625 180.78125 C 305.792969 181.238281 305.792969 182.902344 304.625 183.359375 L 267.757812 197.59375 C 265.097656 198.613281 263.351562 201.175781 263.351562 204.027344 Z M 263.351562 204 " fill-opacity="1" fill-rule="nonzero"/></svg>